<svg width="274" height="241" viewBox="0 0 274 241" fill="none" xmlns="http://www.w3.org/2000/svg">
<path d="M207.897 50.6633L206.483 51.1638L207.897 50.6633ZM104.51 107.083L103.093 107.575L103.118 107.647L103.15 107.716L104.51 107.083ZM244.689 104.511L246.016 103.813L245.979 103.743L245.935 103.677L244.689 104.511ZM259.87 239.647C260.35 240.322 261.286 240.48 261.962 240L272.964 232.177C273.639 231.697 273.797 230.76 273.317 230.085C272.837 229.41 271.901 229.252 271.226 229.732L261.446 236.686L254.492 226.906C254.012 226.231 253.075 226.072 252.4 226.552C251.725 227.032 251.567 227.969 252.047 228.644L259.87 239.647ZM2.67982 44.0105C34.3185 12.0533 80.7069 0.771831 121.604 4.12151C142.041 5.79532 161.024 11.1182 176.025 19.2694C191.041 27.428 201.947 38.3484 206.483 51.1638L209.311 50.1628C204.446 36.4201 192.874 25.0098 177.458 16.6334C162.028 8.24967 142.626 2.83324 121.849 1.13153C80.3207 -2.26985 32.9685 9.15282 0.547903 41.8999L2.67982 44.0105ZM206.483 51.1638C211.499 65.3326 209.055 78.5728 202.199 89.8466C195.32 101.158 183.988 110.492 171.297 116.644C158.602 122.799 144.686 125.703 132.722 124.312C120.794 122.924 110.913 117.3 105.871 106.451L103.15 107.716C108.736 119.735 119.685 125.816 132.375 127.292C145.028 128.763 159.519 125.688 172.606 119.344C185.697 112.997 197.522 103.312 204.762 91.4054C212.026 79.4618 214.665 65.2862 209.311 50.1628L206.483 51.1638ZM105.928 106.591C101.938 95.0984 105.363 85.008 113.604 77.2546C121.913 69.4381 135.132 64.016 150.498 62.2807C181.206 58.8127 219.865 70.1336 243.442 105.346L245.935 103.677C221.628 67.3737 181.78 55.7288 150.161 59.2997C134.363 61.0838 120.463 66.6824 111.549 75.0696C102.567 83.52 98.6645 94.8164 103.093 107.575L105.928 106.591ZM243.361 105.21C264.458 145.305 268.705 177.369 267.619 199.961C267.076 211.264 265.197 220.219 263.405 226.648C262.509 229.864 261.633 232.452 260.952 234.399C260.616 235.362 260.315 236.202 260.092 236.857C259.878 237.486 259.689 238.079 259.613 238.527L262.571 239.027C262.6 238.856 262.706 238.49 262.933 237.822C263.15 237.181 263.435 236.389 263.784 235.39C264.476 233.412 265.374 230.757 266.295 227.454C268.136 220.847 270.06 211.668 270.616 200.105C271.728 176.966 267.356 144.372 246.016 103.813L243.361 105.21Z" fill="#F2B246"/>
</svg>
