<svg width="768" height="603" viewBox="0 0 768 603" fill="none" xmlns="http://www.w3.org/2000/svg">
<path fill-rule="evenodd" clip-rule="evenodd" d="M699.735 170.561L669.991 -8.74967e-06L543.536 108.637L600.109 131.065L549.2 264.896L460.044 225.353L460.303 224.688L415.851 205.071L342.799 393.075L240.819 349.245L240.945 348.901L200.592 331.956L198.549 331.078L198.542 331.095L196.184 330.104L106.273 574.123L151.035 592.92L223.807 395.415L369.653 458.098L371.245 453.882L442.244 271.162L576.24 330.592L576.75 329.287L576.911 329.357L584.043 310.606L594.112 284.816L593.891 284.718L645.495 149.058L699.735 170.561Z" fill="#F2B246"/>
<path fill-rule="evenodd" clip-rule="evenodd" d="M545.265 254.108L587.505 140.528C585.356 139.229 584.363 136.547 585.27 134.106C586.297 131.345 589.367 129.94 592.128 130.967C594.889 131.993 596.295 135.064 595.268 137.824C594.36 140.265 591.856 141.646 589.38 141.225L546.937 255.349C546.827 255.645 546.591 255.858 546.312 255.95C546.033 256.302 545.54 256.433 545.113 256.238L419.585 198.91C419.082 198.68 418.861 198.087 419.09 197.585C419.32 197.082 419.913 196.861 420.415 197.09L545.265 254.108ZM337.441 381.667L404.828 206.462C402.693 205.14 401.729 202.447 402.664 200.016C403.721 197.267 406.807 195.896 409.557 196.953C412.306 198.01 413.677 201.096 412.62 203.845C411.685 206.276 409.165 207.629 406.694 207.18L338.935 383.354L338.929 383.37C338.905 383.43 338.876 383.487 338.842 383.54C338.591 383.932 338.092 384.107 337.641 383.933L337.629 383.929C337.618 383.924 337.606 383.919 337.594 383.914L196.701 322.69C196.194 322.47 195.962 321.881 196.182 321.375C196.402 320.868 196.991 320.636 197.498 320.856L337.441 381.667ZM182.338 335.248L98.1191 568.32C97.9314 568.84 98.2003 569.413 98.7198 569.601C99.2392 569.788 99.8124 569.519 100 569L184.219 335.928C186.699 336.326 189.191 334.921 190.076 332.473C191.077 329.702 189.642 326.645 186.872 325.644C184.102 324.643 181.045 326.077 180.044 328.848C179.159 331.296 180.177 333.969 182.338 335.248Z" fill="#45A7A8"/>
</svg>
